<svg width="100" height="100" viewBox="0 0 100 100" fill="none" xmlns="http://www.w3.org/2000/svg">
<ellipse cx="49.5" cy="46" rx="36.5" ry="36" stroke="white" stroke-width="4"/>
<path d="M77 21.0001C73.7815 24.5587 71.2696 26.7433 66.2903 28.7832C61.311 30.8231 55.7708 31.9244 50.1273 31.9962C44.4838 32.0681 38.899 31.1083 33.8343 29.1963C28.7696 27.2842 24.3704 24.4748 21 21" stroke="white" stroke-width="4"/>
<path d="M79.4847 70.249C76.1827 66.5345 71.7963 63.4868 66.6878 61.3576C61.5792 59.2285 55.8952 58.0789 50.1052 58.0039C44.3152 57.9289 38.5855 58.9307 33.3894 60.9265C28.1932 62.9222 23.6798 65.8547 20.2219 69.4816" stroke="white" stroke-width="4"/>
<path d="M50 10V82" stroke="white" stroke-width="4"/>
<path d="M86 45H13" stroke="white" stroke-width="4"/>
</svg>
