<svg width="100" height="101" viewBox="0 0 100 101" fill="none" xmlns="http://www.w3.org/2000/svg">
<path fill-rule="evenodd" clip-rule="evenodd" d="M77.0087 23.4912L20.9824 42.1666L45.2008 50.2394C45.2519 50.2564 45.3118 50.2755 45.3795 50.2971C46.0415 50.5078 47.4438 50.9542 48.4948 52.0051C49.5457 53.056 49.9921 54.4584 50.2028 55.1204C50.2244 55.1881 50.2434 55.248 50.2605 55.2991L58.3333 79.5175L77.0087 23.4912ZM80.7554 13.9271C81.5536 13.7851 83.623 13.5475 85.2877 15.2122C86.9524 16.8769 86.7148 18.9463 86.5728 19.7445C86.4362 20.5124 86.1424 21.3909 85.9147 22.0719C85.897 22.1246 85.8798 22.1761 85.8631 22.2263L65.9227 82.0473C65.8948 82.1311 65.8669 82.2147 65.8392 82.2981C65.1274 84.4343 64.4691 86.4101 63.7799 87.827C63.2272 88.963 61.6965 91.8421 58.3333 91.8421C54.97 91.8421 53.4393 88.963 52.8867 87.827C52.1974 86.4101 51.5391 84.4343 50.8274 82.2981C50.7996 82.2147 50.7717 82.1311 50.7438 82.0473L42.671 57.8289L18.4526 49.7561C18.3688 49.7281 18.2852 49.7003 18.2018 49.6725C16.0656 48.9608 14.0898 48.3025 12.6729 47.6132C11.5369 47.0606 8.65784 45.5299 8.65784 42.1666C8.65784 38.8034 11.5369 37.2727 12.6729 36.72C14.0898 36.0307 16.0656 35.3725 18.2018 34.6607C18.2852 34.6329 18.3688 34.6051 18.4526 34.5771L78.2736 14.6368C78.3238 14.6201 78.3753 14.6029 78.428 14.5852C79.109 14.3575 79.9875 14.0637 80.7554 13.9271Z" fill="#9C9C9C"/>
</svg>
