<svg width="100" height="100" viewBox="0 0 100 100" fill="none" xmlns="http://www.w3.org/2000/svg">
<path d="M90 18C90 14.2288 90 12.3431 88.8284 11.1716C87.6569 10 85.7712 10 82 10H18C14.2288 10 12.3431 10 11.1716 11.1716C10 12.3431 10 14.2288 10 18V88C10 88.9428 10 89.4142 10.2929 89.7071C10.5858 90 11.0572 90 12 90H82C85.7712 90 87.6569 90 88.8284 88.8284C90 87.6569 90 85.7712 90 82V18Z" stroke="#9C9C9C" stroke-width="8"/>
<path d="M35 40L65 40" stroke="#9C9C9C" stroke-width="8" stroke-linecap="round" stroke-linejoin="round"/>
<path d="M35 60H50" stroke="#9C9C9C" stroke-width="8" stroke-linecap="round" stroke-linejoin="round"/>
</svg>
