<svg width="100" height="101" viewBox="0 0 100 101" fill="none" xmlns="http://www.w3.org/2000/svg">
<path d="M16 67.6429V11C16 10.7643 16 10.6464 16.0732 10.5732C16.1464 10.5 16.2643 10.5 16.5 10.5H82.8C83.3111 10.5 83.5667 10.5 83.6308 10.6538C83.6949 10.8077 83.5149 10.9892 83.155 11.3521L55.946 38.7898C55.8142 38.9226 55.7483 38.9891 55.7483 39.0714C55.7483 39.1538 55.8142 39.2202 55.946 39.3531L83.155 66.7908C83.5149 67.1537 83.6949 67.3352 83.6308 67.489C83.5667 67.6429 83.3111 67.6429 82.8 67.6429H16ZM16 67.6429V90.5" stroke="#9C9C9C" stroke-width="8" stroke-linecap="round"/>
</svg>
