<svg width="62" height="62" viewBox="0 0 62 62" fill="none" xmlns="http://www.w3.org/2000/svg">
<path d="M36.3468 6.96768L35.3517 7.06718V7.06718L36.3468 6.96768ZM36.8718 12.2186L35.8768 12.3181V12.3181L36.8718 12.2186ZM37.6697 14.8979L38.0524 13.974L37.6697 14.8979ZM40.1284 13.5675L40.7616 14.3414H40.7616L40.1284 13.5675ZM44.2126 10.2259L43.5793 9.45191H43.5793L44.2126 10.2259ZM45.5961 9.42799L45.5462 10.4268H45.5462L45.5961 9.42799ZM46.8933 10.3596L47.6004 9.65246L47.6004 9.65246L46.8933 10.3596ZM51.6403 15.1066L50.9332 15.8138V15.8138L51.6403 15.1066ZM52.5719 16.4039L51.5732 16.4537L51.5732 16.4537L52.5719 16.4039ZM51.774 17.7873L51.0001 17.1541L51.774 17.7873ZM48.4324 21.8716L49.2063 22.5048L48.4324 21.8716ZM47.102 24.3303L48.0259 23.9476L48.0259 23.9476L47.102 24.3303ZM49.7813 25.1281L49.8808 24.1331L49.7813 25.1281ZM55.0323 25.6533L54.9328 26.6483L55.0323 25.6533ZM56.5748 26.0673L55.8333 26.7383L55.8333 26.7383L56.5748 26.0673ZM56.5748 35.9327L55.8333 35.2617L55.8333 35.2617L56.5748 35.9327ZM55.0323 36.3468L54.9328 35.3517L55.0323 36.3468ZM49.7823 36.8718L49.8818 37.8668L49.7823 36.8718ZM47.103 37.6696L48.0269 38.0523L48.0269 38.0523L47.103 37.6696ZM48.4334 40.1283L49.2073 39.4951L48.4334 40.1283ZM51.7742 44.2116L52.5481 43.5783V43.5783L51.7742 44.2116ZM52.572 45.595L51.5733 45.5452L51.5733 45.5452L52.572 45.595ZM45.5962 52.5709L45.5464 51.5721L45.5463 51.5721L45.5962 52.5709ZM44.2127 51.773L43.5795 52.547L44.2127 51.773ZM40.1285 48.4314L40.7617 47.6575L40.1285 48.4314ZM37.6698 47.101L37.2871 46.1772L37.2871 46.1772L37.6698 47.101ZM36.872 49.7803L35.8769 49.6808L36.872 49.7803ZM36.3468 55.0324L35.3517 54.9329L36.3468 55.0324ZM35.9327 56.5748L36.6037 57.3163L36.6037 57.3163L35.9327 56.5748ZM26.0673 56.5748L25.3963 57.3163L25.3963 57.3163L26.0673 56.5748ZM25.6532 55.0324L24.6582 55.1319V55.1319L25.6532 55.0324ZM25.1281 49.7813L24.1331 49.8808L25.1281 49.7813ZM24.3303 47.1021L24.713 46.1782L24.713 46.1782L24.3303 47.1021ZM21.8716 48.4324L22.5048 49.2064L21.8716 48.4324ZM17.7872 51.7742L17.1539 51.0002L17.1153 51.0318L17.0801 51.0671L17.7872 51.7742ZM17.7872 51.7742L18.4204 52.5482L18.459 52.5166L18.4943 52.4813L17.7872 51.7742ZM16.4037 52.5721L16.4535 51.5733L16.4535 51.5733L16.4037 52.5721ZM15.1065 51.6405L14.3539 52.299L14.3759 52.3241L14.3994 52.3476L15.1065 51.6405ZM15.1065 51.6405L15.8591 50.982L15.8371 50.9569L15.8136 50.9334L15.1065 51.6405ZM10.3594 46.8934L9.65231 47.6005H9.65231L10.3594 46.8934ZM9.42784 45.5962L8.42908 45.646V45.646L9.42784 45.5962ZM10.2257 44.2127L10.9997 44.846L10.9997 44.846L10.2257 44.2127ZM13.5674 40.1284L12.7935 39.4952V39.4952L13.5674 40.1284ZM14.8978 37.6697L15.8217 37.287L14.8978 37.6697ZM12.2185 36.8719L12.119 37.8669H12.119L12.2185 36.8719ZM6.96765 36.3468L7.06715 35.3517H7.06715L6.96765 36.3468ZM5.4252 35.9327L6.16666 35.2617L6.16665 35.2617L5.4252 35.9327ZM5.4252 26.0673L6.16665 26.7383L6.16666 26.7383L5.4252 26.0673ZM6.96765 25.6533L7.06715 26.6483H7.06715L6.96765 25.6533ZM12.2195 25.1281L12.12 24.133H12.12L12.2195 25.1281ZM14.8988 24.3302L15.8227 24.7129V24.7129L14.8988 24.3302ZM13.5684 21.8715L14.3424 21.2383L13.5684 21.8715ZM10.2258 17.7862L10.9998 17.1529L10.2258 17.7862ZM9.42796 16.4027L8.4292 16.3529V16.3529L9.42796 16.4027ZM10.3595 15.1055L11.0666 15.8126L10.3595 15.1055ZM15.1066 10.3584L15.8137 11.0655L15.1066 10.3584ZM16.4038 9.42683L16.354 8.42807H16.354L16.4038 9.42683ZM17.7873 10.2247L17.1541 10.9987L17.7873 10.2247ZM21.8717 13.5665L22.5049 12.7925L21.8717 13.5665ZM24.3304 14.8968L24.7131 15.8207H24.7131L24.3304 14.8968ZM25.1282 12.2176L26.1233 12.3171V12.3171L25.1282 12.2176ZM25.6532 6.96768L24.6582 6.86818V6.86818L25.6532 6.96768ZM26.0673 5.42523L25.3963 4.68378L25.3963 4.68378L26.0673 5.42523ZM37.3418 6.86818C37.3017 6.46681 37.2639 6.07018 37.1889 5.74656C37.1074 5.39513 36.9561 5.00274 36.6037 4.68378L35.2617 6.16669C35.1949 6.10627 35.2079 6.05715 35.2406 6.19832C35.2798 6.36729 35.3063 6.61261 35.3517 7.06718L37.3418 6.86818ZM37.8669 12.1191L37.3418 6.86818L35.3517 7.06718L35.8768 12.3181L37.8669 12.1191ZM38.0524 13.974C38.2263 14.046 38.1817 14.1876 38.0945 13.8409C38.0069 13.4929 37.9519 12.9696 37.8669 12.1191L35.8768 12.3181C35.9551 13.101 36.0226 13.803 36.1549 14.3289C36.2876 14.8562 36.5603 15.5207 37.287 15.8217L38.0524 13.974ZM39.4952 12.7935C38.8336 13.3348 38.4247 13.6659 38.1166 13.8501C37.8098 14.0336 37.8785 13.9019 38.0524 13.974L37.287 15.8217C38.0137 16.1227 38.6764 15.8457 39.1431 15.5666C39.6085 15.2883 40.1526 14.8397 40.7616 14.3414L39.4952 12.7935ZM43.5793 9.45191L39.4952 12.7935L40.7616 14.3414L44.8458 10.9998L43.5793 9.45191ZM45.6459 8.42924C45.1711 8.40556 44.7867 8.57603 44.4805 8.76692C44.1987 8.94269 43.8915 9.19649 43.5793 9.45191L44.8458 10.9998C45.1994 10.7105 45.3916 10.5558 45.5388 10.464C45.6617 10.3873 45.6362 10.4312 45.5462 10.4268L45.6459 8.42924ZM47.6004 9.65246C47.3152 9.36724 47.0348 9.08415 46.7718 8.88119C46.4862 8.6608 46.1206 8.45291 45.6459 8.42924L45.5462 10.4268C45.4563 10.4223 45.4352 10.376 45.55 10.4646C45.6873 10.5705 45.8631 10.7436 46.1862 11.0667L47.6004 9.65246ZM52.3475 14.3995L47.6004 9.65246L46.1862 11.0667L50.9332 15.8138L52.3475 14.3995ZM53.5707 16.3541C53.547 15.8793 53.3391 15.5137 53.1187 15.2281C52.9158 14.9651 52.6327 14.6848 52.3475 14.3995L50.9332 15.8138C51.2563 16.1368 51.4294 16.3126 51.5353 16.45C51.6239 16.5647 51.5776 16.5436 51.5732 16.4537L53.5707 16.3541ZM52.548 18.4206C52.8034 18.1084 53.0572 17.8013 53.233 17.5194C53.4239 17.2132 53.5944 16.8288 53.5707 16.354L51.5732 16.4537C51.5687 16.3638 51.6126 16.3382 51.5359 16.4611C51.4441 16.6083 51.2894 16.8005 51.0001 17.1541L52.548 18.4206ZM49.2063 22.5048L52.548 18.4206L51.0001 17.1541L47.6584 21.2384L49.2063 22.5048ZM48.0259 23.9476C48.0979 24.1215 47.9663 24.1901 48.1497 23.8833C48.3339 23.5753 48.665 23.1664 49.2063 22.5048L47.6584 21.2384C47.1601 21.8474 46.7116 22.3914 46.4332 22.8569C46.1541 23.3236 45.8771 23.9863 46.1781 24.713L48.0259 23.9476ZM49.8808 24.1331C49.0302 24.0481 48.507 23.9931 48.1589 23.9055C47.8122 23.8183 47.9538 23.7737 48.0259 23.9476L46.1781 24.713C46.4791 25.4397 47.1436 25.7124 47.671 25.8451C48.1969 25.9774 48.8988 26.0449 49.6818 26.1232L49.8808 24.1331ZM55.1318 24.6582L49.8808 24.1331L49.6818 26.1232L54.9328 26.6483L55.1318 24.6582ZM57.3162 25.3963C56.9973 25.0439 56.6049 24.8926 56.2535 24.8111C55.9298 24.7361 55.5332 24.6984 55.1318 24.6582L54.9328 26.6483C55.3874 26.6937 55.6327 26.7202 55.8017 26.7594C55.9429 26.7921 55.8937 26.8051 55.8333 26.7383L57.3162 25.3963ZM57.8333 27.6433C57.8333 27.24 57.8353 26.8416 57.7928 26.5121C57.7467 26.1543 57.6352 25.7488 57.3162 25.3963L55.8333 26.7383C55.7729 26.6716 55.7907 26.624 55.8092 26.7677C55.8314 26.9398 55.8333 27.1865 55.8333 27.6433H57.8333ZM57.8333 34.3567V27.6433H55.8333V34.3567H57.8333ZM57.3162 36.6037C57.6352 36.2513 57.7467 35.8458 57.7928 35.488C57.8353 35.1585 57.8333 34.7601 57.8333 34.3567H55.8333C55.8333 34.8135 55.8314 35.0603 55.8092 35.2323C55.7907 35.3761 55.7729 35.3285 55.8333 35.2617L57.3162 36.6037ZM55.1318 37.3418C55.5332 37.3017 55.9298 37.264 56.2535 37.1889C56.6049 37.1075 56.9973 36.9562 57.3162 36.6037L55.8333 35.2617C55.8937 35.1949 55.9429 35.2079 55.8017 35.2406C55.6327 35.2798 55.3874 35.3063 54.9328 35.3517L55.1318 37.3418ZM49.8818 37.8668L55.1318 37.3418L54.9328 35.3517L49.6828 35.8768L49.8818 37.8668ZM48.0269 38.0523C47.9548 38.2262 47.8132 38.1817 48.1599 38.0944C48.508 38.0069 49.0312 37.9519 49.8818 37.8668L49.6828 35.8768C48.8998 35.9551 48.1979 36.0226 47.6719 36.1549C47.1446 36.2876 46.4801 36.5603 46.1791 37.287L48.0269 38.0523ZM49.2073 39.4951C48.666 38.8335 48.3349 38.4247 48.1507 38.1166C47.9672 37.8098 48.0989 37.8784 48.0269 38.0523L46.1791 37.287C45.8781 38.0137 46.1551 38.6763 46.4342 39.143C46.7125 39.6085 47.1611 40.1526 47.6594 40.7616L49.2073 39.4951ZM52.5481 43.5783L49.2073 39.4951L47.6594 40.7616L51.0002 44.8448L52.5481 43.5783ZM53.5708 45.6449C53.5945 45.1701 53.424 44.7857 53.2331 44.4795C53.0573 44.1976 52.8036 43.8905 52.5481 43.5783L51.0002 44.8448C51.2895 45.1984 51.4442 45.3906 51.536 45.5378C51.6127 45.6607 51.5688 45.6351 51.5733 45.5452L53.5708 45.6449ZM52.3476 47.5994C52.6328 47.3141 52.9159 47.0338 53.1188 46.7708C53.3392 46.4852 53.5471 46.1196 53.5708 45.6448L51.5733 45.5452C51.5778 45.4553 51.624 45.4342 51.5355 45.5489C51.4295 45.6863 51.2564 45.8621 50.9334 46.1851L52.3476 47.5994ZM47.6005 52.3464L52.3476 47.5994L50.9334 46.1851L46.1863 50.9322L47.6005 52.3464ZM45.646 53.5697C46.1207 53.546 46.4863 53.3381 46.7719 53.1177C47.0349 52.9147 47.3153 52.6317 47.6005 52.3464L46.1863 50.9322C45.8632 51.2553 45.6874 51.4283 45.5501 51.5343C45.4353 51.6229 45.4564 51.5766 45.5464 51.5721L45.646 53.5697ZM43.5795 52.547C43.8916 52.8024 44.1988 53.0562 44.4807 53.232C44.7868 53.4229 45.1712 53.5933 45.646 53.5697L45.5463 51.5721C45.6363 51.5677 45.6619 51.6116 45.5389 51.5349C45.3917 51.4431 45.1995 51.2884 44.8459 50.9991L43.5795 52.547ZM39.4953 49.2054L43.5795 52.547L44.8459 50.9991L40.7617 47.6575L39.4953 49.2054ZM38.0525 48.0249C37.8786 48.0969 37.81 47.9653 38.1168 48.1488C38.4248 48.333 38.8337 48.6641 39.4953 49.2054L40.7617 47.6575C40.1527 47.1592 39.6087 46.7106 39.1432 46.4323C38.6765 46.1532 38.0138 45.8761 37.2871 46.1772L38.0525 48.0249ZM37.867 49.8798C37.9521 49.0293 38.007 48.506 38.0946 48.1579C38.1818 47.8113 38.2264 47.9529 38.0525 48.0249L37.2871 46.1772C36.5604 46.4782 36.2877 47.1427 36.1551 47.67C36.0227 48.1959 35.9552 48.8979 35.8769 49.6808L37.867 49.8798ZM37.3418 55.1319L37.867 49.8798L35.8769 49.6808L35.3517 54.9329L37.3418 55.1319ZM36.6037 57.3163C36.9561 56.9973 37.1074 56.6049 37.1889 56.2535C37.2639 55.9299 37.3017 55.5332 37.3418 55.1319L35.3517 54.9329C35.3063 55.3874 35.2798 55.6327 35.2406 55.8017C35.2079 55.9429 35.1949 55.8938 35.2617 55.8334L36.6037 57.3163ZM34.3567 57.8334C34.76 57.8334 35.1585 57.8353 35.4879 57.7928C35.8457 57.7467 36.2512 57.6352 36.6037 57.3163L35.2617 55.8334C35.3284 55.7729 35.376 55.7907 35.2323 55.8092C35.0603 55.8314 34.8135 55.8334 34.3567 55.8334V57.8334ZM27.6433 57.8334H34.3567V55.8334H27.6433V57.8334ZM25.3963 57.3163C25.7487 57.6352 26.1542 57.7467 26.512 57.7928C26.8415 57.8353 27.2399 57.8334 27.6433 57.8334V55.8334C27.1865 55.8334 26.9397 55.8314 26.7677 55.8092C26.624 55.7907 26.6715 55.7729 26.7383 55.8334L25.3963 57.3163ZM24.6582 55.1319C24.6983 55.5332 24.736 55.9299 24.8111 56.2535C24.8926 56.6049 25.0438 56.9973 25.3963 57.3163L26.7383 55.8334C26.8051 55.8938 26.7921 55.9429 26.7594 55.8017C26.7202 55.6327 26.6937 55.3874 26.6483 54.9329L24.6582 55.1319ZM24.1331 49.8808L24.6582 55.1319L26.6483 54.9329L26.1232 49.6818L24.1331 49.8808ZM23.9476 48.0259C23.7737 47.9539 23.8182 47.8123 23.9055 48.159C23.993 48.507 24.048 49.0303 24.1331 49.8808L26.1232 49.6818C26.0449 48.8989 25.9773 48.1969 25.845 47.671C25.7124 47.1437 25.4397 46.4792 24.713 46.1782L23.9476 48.0259ZM22.5048 49.2064C23.1664 48.6651 23.5753 48.334 23.8833 48.1498C24.1901 47.9663 24.1215 48.098 23.9476 48.0259L24.713 46.1782C23.9863 45.8772 23.3236 46.1542 22.8569 46.4333C22.3914 46.7116 21.8473 47.1602 21.2383 47.6585L22.5048 49.2064ZM18.4204 52.5482L22.5048 49.2064L21.2383 47.6585L17.1539 51.0002L18.4204 52.5482ZM18.4943 52.4813L18.4943 52.4813L17.0801 51.0671L17.0801 51.0671L18.4943 52.4813ZM16.3539 53.5708C16.8286 53.5945 17.2131 53.424 17.5192 53.2332C17.8011 53.0574 18.1082 52.8036 18.4204 52.5482L17.1539 51.0003C16.8004 51.2895 16.6082 51.4443 16.461 51.5361C16.338 51.6127 16.3636 51.5688 16.4535 51.5733L16.3539 53.5708ZM14.3994 52.3476C14.6846 52.6328 14.965 52.9159 15.228 53.1189C15.5136 53.3393 15.8791 53.5472 16.3539 53.5708L16.4535 51.5733C16.5434 51.5778 16.5645 51.624 16.4498 51.5355C16.3125 51.4295 16.1366 51.2564 15.8136 50.9334L14.3994 52.3476ZM14.3539 52.299L14.3539 52.299L15.8591 50.982L15.8591 50.982L14.3539 52.299ZM9.65231 47.6005L14.3994 52.3476L15.8136 50.9334L11.0665 46.1863L9.65231 47.6005ZM8.42908 45.646C8.45276 46.1208 8.66065 46.4863 8.88104 46.772C9.08399 47.035 9.36709 47.3153 9.65231 47.6005L11.0665 46.1863C10.7435 45.8633 10.5704 45.6874 10.4644 45.5501C10.3759 45.4354 10.4221 45.4565 10.4266 45.5464L8.42908 45.646ZM9.45176 43.5795C9.19633 43.8917 8.94254 44.1988 8.76676 44.4807C8.57588 44.7868 8.4054 45.1713 8.42908 45.646L10.4266 45.5464C10.4311 45.6363 10.3872 45.6619 10.4639 45.5389C10.5556 45.3917 10.7104 45.1995 10.9997 44.846L9.45176 43.5795ZM12.7935 39.4952L9.45176 43.5795L10.9997 44.846L14.3414 40.7617L12.7935 39.4952ZM13.9739 38.0524C13.9019 37.8785 14.0335 37.8099 13.8501 38.1167C13.6659 38.4247 13.3348 38.8336 12.7935 39.4952L14.3414 40.7617C14.8397 40.1527 15.2882 39.6086 15.5666 39.1431C15.8457 38.6764 16.1227 38.0137 15.8217 37.287L13.9739 38.0524ZM12.119 37.8669C12.9696 37.952 13.4928 38.007 13.8409 38.0945C14.1876 38.1817 14.046 38.2263 13.9739 38.0524L15.8217 37.287C15.5207 36.5603 14.8562 36.2876 14.3288 36.155C13.8029 36.0227 13.101 35.9551 12.318 35.8768L12.119 37.8669ZM6.86814 37.3418L12.119 37.8669L12.318 35.8768L7.06715 35.3517L6.86814 37.3418ZM4.68375 36.6037C5.00271 36.9562 5.3951 37.1074 5.74653 37.1889C6.07015 37.264 6.46678 37.3017 6.86815 37.3418L7.06715 35.3517C6.61258 35.3063 6.36726 35.2798 6.19828 35.2406C6.05712 35.2079 6.10624 35.1949 6.16666 35.2617L4.68375 36.6037ZM4.16666 34.3567C4.16666 34.7601 4.16471 35.1585 4.20718 35.488C4.25329 35.8458 4.36479 36.2513 4.68375 36.6037L6.16665 35.2617C6.22707 35.3285 6.2093 35.376 6.19077 35.2323C6.1686 35.0603 6.16666 34.8135 6.16666 34.3567H4.16666ZM4.16666 27.6433V34.3567H6.16666V27.6433H4.16666ZM4.68375 25.3963C4.36479 25.7488 4.25329 26.1543 4.20718 26.5121C4.16471 26.8415 4.16666 27.24 4.16666 27.6433H6.16666C6.16666 27.1865 6.1686 26.9398 6.19077 26.7677C6.2093 26.624 6.22707 26.6716 6.16665 26.7383L4.68375 25.3963ZM6.86815 24.6582C6.46678 24.6984 6.07015 24.7361 5.74653 24.8111C5.3951 24.8926 5.00271 25.0439 4.68375 25.3963L6.16666 26.7383C6.10624 26.8051 6.05712 26.7921 6.19828 26.7594C6.36726 26.7202 6.61258 26.6937 7.06715 26.6483L6.86815 24.6582ZM12.12 24.133L6.86815 24.6582L7.06715 26.6483L12.319 26.1231L12.12 24.133ZM13.9749 23.9475C14.0469 23.7737 14.1885 23.8182 13.8419 23.9054C13.4938 23.993 12.9706 24.048 12.12 24.133L12.319 26.1231C13.102 26.0448 13.8039 25.9773 14.3298 25.845C14.8572 25.7123 15.5216 25.4396 15.8227 24.7129L13.9749 23.9475ZM12.7944 22.5048C13.3357 23.1663 13.6668 23.5752 13.851 23.8833C14.0345 24.1901 13.9029 24.1214 13.9749 23.9475L15.8227 24.7129C16.1237 23.9862 15.8466 23.3235 15.5676 22.8568C15.2892 22.3914 14.8406 21.8473 14.3424 21.2383L12.7944 22.5048ZM9.45188 18.4194L12.7944 22.5048L14.3424 21.2383L10.9998 17.1529L9.45188 18.4194ZM8.4292 16.3529C8.40553 16.8276 8.576 17.2121 8.76688 17.5182C8.94266 17.8001 9.19645 18.1072 9.45188 18.4194L10.9998 17.1529C10.7105 16.7994 10.5558 16.6072 10.464 16.46C10.3873 16.337 10.4312 16.3626 10.4267 16.4525L8.4292 16.3529ZM9.65243 14.3984C9.36721 14.6836 9.08411 14.9639 8.88116 15.2269C8.66077 15.5126 8.45288 15.8781 8.4292 16.3529L10.4267 16.4525C10.4222 16.5424 10.376 16.5635 10.4645 16.4488C10.5705 16.3115 10.7436 16.1356 11.0666 15.8126L9.65243 14.3984ZM14.3995 9.65129L9.65243 14.3984L11.0666 15.8126L15.8137 11.0655L14.3995 9.65129ZM16.354 8.42807C15.8793 8.45175 15.5137 8.65963 15.2281 8.88002C14.9651 9.08298 14.6847 9.36607 14.3995 9.65129L15.8137 11.0655C16.1368 10.7425 16.3126 10.5694 16.4499 10.4634C16.5647 10.3749 16.5436 10.4211 16.4536 10.4256L16.354 8.42807ZM18.4205 9.45074C18.1084 9.19531 17.8012 8.94152 17.5193 8.76575C17.2132 8.57486 16.8288 8.40439 16.354 8.42807L16.4536 10.4256C16.3637 10.4301 16.3381 10.3862 16.4611 10.4628C16.6083 10.5546 16.8005 10.7094 17.1541 10.9987L18.4205 9.45074ZM22.5049 12.7925L18.4205 9.45074L17.1541 10.9987L21.2384 14.3404L22.5049 12.7925ZM23.9477 13.973C24.1216 13.9009 24.1902 14.0326 23.8834 13.8491C23.5754 13.6649 23.1665 13.3338 22.5049 12.7925L21.2384 14.3404C21.8475 14.8387 22.3915 15.2873 22.857 15.5656C23.3237 15.8447 23.9864 16.1217 24.7131 15.8207L23.9477 13.973ZM24.1332 12.1181C24.0481 12.9686 23.9931 13.4919 23.9056 13.8399C23.8184 14.1866 23.7738 14.045 23.9477 13.973L24.7131 15.8207C25.4398 15.5197 25.7125 14.8552 25.8451 14.3279C25.9775 13.802 26.045 13.1 26.1233 12.3171L24.1332 12.1181ZM24.6582 6.86818L24.1332 12.1181L26.1233 12.3171L26.6483 7.06718L24.6582 6.86818ZM25.3963 4.68378C25.0438 5.00274 24.8926 5.39513 24.8111 5.74656C24.736 6.07018 24.6983 6.46681 24.6582 6.86818L26.6483 7.06719C26.6937 6.61262 26.7202 6.3673 26.7594 6.19832C26.7921 6.05714 26.8051 6.10627 26.7383 6.16669L25.3963 4.68378ZM27.6433 4.16669C27.2399 4.16669 26.8415 4.16474 26.512 4.20721C26.1542 4.25332 25.7487 4.36482 25.3963 4.68378L26.7383 6.16669C26.6716 6.2271 26.624 6.20933 26.7677 6.1908C26.9397 6.16863 27.1865 6.16669 27.6433 6.16669V4.16669ZM34.3567 4.16669H27.6433V6.16669H34.3567V4.16669ZM36.6037 4.68378C36.2512 4.36482 35.8457 4.25332 35.4879 4.20721C35.1585 4.16474 34.76 4.16669 34.3567 4.16669V6.16669C34.8135 6.16669 35.0603 6.16863 35.2323 6.1908C35.376 6.20933 35.3284 6.2271 35.2617 6.16669L36.6037 4.68378ZM40.3333 31C40.3333 36.1547 36.1546 40.3334 31 40.3334V42.3334C37.2592 42.3334 42.3333 37.2593 42.3333 31H40.3333ZM31 21.6667C36.1546 21.6667 40.3333 25.8454 40.3333 31H42.3333C42.3333 24.7408 37.2592 19.6667 31 19.6667V21.6667ZM21.6667 31C21.6667 25.8454 25.8453 21.6667 31 21.6667V19.6667C24.7408 19.6667 19.6667 24.7408 19.6667 31H21.6667ZM31 40.3334C25.8453 40.3334 21.6667 36.1547 21.6667 31H19.6667C19.6667 37.2593 24.7408 42.3334 31 42.3334V40.3334Z" fill="white"/>
</svg>
