<svg width="100" height="101" viewBox="0 0 100 101" fill="none" xmlns="http://www.w3.org/2000/svg">
<path d="M83.3333 50.5V84C83.3333 85.8856 83.3333 86.8284 82.7475 87.4142C82.1617 88 81.2189 88 79.3333 88H22.6666C19.8382 88 18.424 88 17.5453 87.1213C16.6666 86.2426 16.6666 84.8284 16.6666 82V73.1667C16.6666 70.3382 16.6666 68.924 17.5453 68.0453C18.424 67.1667 19.8382 67.1667 22.6666 67.1667H79.3333C81.2189 67.1667 82.1617 67.1667 82.7475 66.5809C83.3333 65.9951 83.3333 65.0523 83.3333 63.1667V17C83.3333 15.1144 83.3333 14.1716 82.7475 13.5858C82.1617 13 81.2189 13 79.3333 13H20.6666C18.781 13 17.8382 13 17.2524 13.5858C16.6666 14.1716 16.6666 15.1144 16.6666 17V77.5833" stroke="white" stroke-width="8"/>
<path d="M37.5 42.1667L45.1262 49.7929C45.5168 50.1835 46.1499 50.1835 46.5404 49.7929L62.5 33.8334" stroke="white" stroke-width="8" stroke-linecap="round"/>
</svg>
