<svg width="100" height="101" viewBox="0 0 100 101" fill="none" xmlns="http://www.w3.org/2000/svg">
<path d="M12.5 21C12.5 17.2288 12.5 15.3431 13.6716 14.1716C14.8431 13 16.7288 13 20.5 13H79.5C83.2712 13 85.1569 13 86.3284 14.1716C87.5 15.3431 87.5 17.2288 87.5 21V80C87.5 83.7712 87.5 85.6569 86.3284 86.8284C85.1569 88 83.2712 88 79.5 88H20.5C16.7288 88 14.8431 88 13.6716 86.8284C12.5 85.6569 12.5 83.7712 12.5 80V21Z" stroke="#9C9C9C" stroke-width="8"/>
<path fill-rule="evenodd" clip-rule="evenodd" d="M85.5 63.676L72.3235 50.4995L72.2122 50.388C71.6472 49.8223 70.9745 49.1488 70.3179 48.6478C69.5252 48.043 68.3071 47.3279 66.6667 47.3279C65.0262 47.3279 63.8082 48.043 63.0155 48.6478C62.3588 49.1488 61.6861 49.8224 61.1211 50.3881L61.0098 50.4995L51.3492 60.16L43.5039 41.8542L43.4229 41.6649L43.4228 41.6649C42.9689 40.6043 42.47 39.4385 41.9176 38.5408C41.2892 37.5193 40.1043 36.0237 37.96 35.6108C35.8158 35.1978 34.1602 36.1464 33.1973 36.8614C32.3511 37.4898 31.4549 38.3868 30.6395 39.203L30.6395 39.203L30.4939 39.3487L14.5 55.3426V60.8328L17.4118 63.7446L36.1507 45.0056L45.1597 66.0266L45.2113 66.1471C45.423 66.643 45.7295 67.3612 46.0877 67.9435C46.5193 68.6449 47.508 69.9616 49.3918 70.3244C51.2755 70.6872 52.6825 69.8318 53.3437 69.3409C53.8926 68.9333 54.444 68.3803 54.8247 67.9985L54.9173 67.9057L66.6667 56.1563L80.5049 69.9946L85.5 64.9995V63.676ZM38.0124 43.2521C38.0142 43.251 38.0151 43.2503 38.0151 43.2503C38.0151 43.2502 38.0122 43.252 38.0063 43.2559C38.0089 43.2544 38.0109 43.2531 38.0124 43.2521ZM35.0716 42.6834C35.0717 42.6833 35.0737 42.6861 35.0777 42.692C35.0736 42.6865 35.0716 42.6835 35.0716 42.6834Z" fill="#9C9C9C"/>
<line x1="80.5" y1="24.5" x2="51.5" y2="24.5" stroke="#9C9C9C" stroke-width="5" stroke-linecap="round"/>
<line x1="80.5" y1="31.5" x2="51.5" y2="31.5" stroke="#9C9C9C" stroke-width="5" stroke-linecap="round"/>
<line x1="80.5" y1="38.5" x2="51.5" y2="38.5" stroke="#9C9C9C" stroke-width="5" stroke-linecap="round"/>
</svg>
