<svg width="100" height="100" viewBox="0 0 100 100" fill="none" xmlns="http://www.w3.org/2000/svg">
<ellipse cx="50" cy="33.3333" rx="16.6667" ry="16.6667" stroke="#9C9C9C" stroke-width="8" stroke-linecap="round"/>
<path fill-rule="evenodd" clip-rule="evenodd" d="M72 71.6136C71.6574 71.4464 71.2572 71.2345 70.7909 70.9662C64.8038 67.5207 57.4962 65.6667 50 65.6667C42.5038 65.6667 35.1962 67.5207 29.2092 70.9662C23.2227 74.4113 18.8545 79.2794 16.8608 84.8598C16.675 85.3799 16.946 85.9521 17.4661 86.1379C17.9861 86.3237 18.5584 86.0528 18.7442 85.5327C20.5488 80.4814 24.5503 75.9549 30.2068 72.6996C35.8627 69.4446 42.8206 67.6667 50 67.6667C56.6471 67.6667 63.1043 69.1908 68.5141 72H72V71.6136Z" fill="#9C9C9C"/>
<path d="M70.7909 70.9662L72.786 67.4993L72.786 67.4993L70.7909 70.9662ZM72 71.6136H76V69.1146L73.7541 68.0187L72 71.6136ZM50 65.6667V69.6667V65.6667ZM29.2092 70.9662L27.214 67.4993L29.2092 70.9662ZM16.8608 84.8598L13.094 83.514L13.094 83.514L16.8608 84.8598ZM17.4661 86.1379L16.1203 89.9048L17.4661 86.1379ZM18.7442 85.5327L14.9774 84.1869L14.9774 84.1869L18.7442 85.5327ZM30.2068 72.6996L32.2019 76.1665L32.2019 76.1665L30.2068 72.6996ZM50 67.6667V71.6667V67.6667ZM68.5141 72L66.6707 75.5499L67.5374 76H68.5141V72ZM72 72V76H76V72H72ZM68.7957 74.433C69.3296 74.7403 69.8107 74.9961 70.2459 75.2085L73.7541 68.0187C73.5042 67.8968 73.1847 67.7287 72.786 67.4993L68.7957 74.433ZM50 69.6667C56.8626 69.6667 63.4709 71.3686 68.7957 74.433L72.786 67.4993C66.1368 63.6727 58.1298 61.6667 50 61.6667V69.6667ZM31.2044 74.433C36.5292 71.3686 43.1374 69.6667 50 69.6667V61.6667C41.8702 61.6667 33.8632 63.6727 27.214 67.4993L31.2044 74.433ZM20.6276 86.2055C22.2431 81.6838 25.8775 77.4986 31.2044 74.433L27.214 67.4993C20.568 71.324 15.4659 76.8749 13.094 83.514L20.6276 86.2055ZM18.8118 82.3711C20.3721 82.9285 21.185 84.6453 20.6276 86.2055L13.094 83.514C12.1649 86.1145 13.5198 88.9757 16.1203 89.9048L18.8118 82.3711ZM14.9774 84.1869C15.5348 82.6266 17.2515 81.8137 18.8118 82.3711L16.1203 89.9048C18.7207 90.8338 21.582 89.4789 22.511 86.8784L14.9774 84.1869ZM28.2116 69.2327C21.8949 72.8679 17.16 78.0776 14.9774 84.1869L22.511 86.8784C23.9376 82.8853 27.2056 79.0418 32.2019 76.1665L28.2116 69.2327ZM50 63.6667C42.187 63.6667 34.5297 65.5967 28.2116 69.2327L32.2019 76.1665C37.1957 73.2926 43.4543 71.6667 50 71.6667V63.6667ZM70.3576 68.4502C64.3348 65.3226 57.238 63.6667 50 63.6667V71.6667C56.0562 71.6667 61.8738 73.0589 66.6707 75.5499L70.3576 68.4502ZM68.5141 76H72V68H68.5141V76ZM76 72V71.6136H68V72H76Z" fill="#9C9C9C"/>
<path d="M75 58.3334L75 91.6667" stroke="#9C9C9C" stroke-width="8" stroke-linecap="round"/>
<path d="M91.6666 75L58.3333 75" stroke="#9C9C9C" stroke-width="8" stroke-linecap="round"/>
</svg>
