<svg width="99" height="99" viewBox="0 0 99 99" fill="none" xmlns="http://www.w3.org/2000/svg">
<path d="M57.9301 10.051L61.9102 9.65298V9.65297L57.9301 10.051ZM59.0974 21.7242L63.0776 21.3262V21.3262L59.0974 21.7242ZM59.8953 24.4035L58.3645 28.099L58.3645 28.099L59.8953 24.4035ZM62.354 23.0731L59.821 19.9773L59.821 19.9773L62.354 23.0731ZM71.4335 15.6444L68.9006 12.5485L68.9006 12.5486L71.4335 15.6444ZM72.817 14.8465L72.6177 18.8415H72.6177L72.817 14.8465ZM74.1142 15.7781L71.2858 18.6065L74.1142 15.7781ZM83.2218 24.8857L80.3933 27.7141L83.2218 24.8857ZM84.1533 26.1829L80.1583 26.3821L80.1583 26.3821L84.1533 26.1829ZM83.3555 27.5663L86.4513 30.0993L86.4513 30.0993L83.3555 27.5663ZM75.9267 36.646L72.8308 34.1131L72.8308 34.1131L75.9267 36.646ZM74.5963 39.1047L78.2918 37.574L78.2918 37.5739L74.5963 39.1047ZM77.2756 39.9026L76.8775 43.8827L77.2756 39.9026ZM88.949 41.0699L89.347 37.0898L88.949 41.0699ZM90.4915 41.484L93.4573 38.8L93.4572 38.7999L90.4915 41.484ZM90.4915 57.516L93.4572 60.2001L93.4573 60.2L90.4915 57.516ZM88.949 57.9301L89.347 61.9102L88.949 57.9301ZM77.2771 59.0973L77.6751 63.0774H77.6751L77.2771 59.0973ZM74.5978 59.8951L78.2933 61.4259L78.2934 61.4258L74.5978 59.8951ZM75.9282 62.3538L72.8324 64.8868L72.8324 64.8868L75.9282 62.3538ZM83.3557 71.4318L86.4515 68.8989L86.4515 68.8989L83.3557 71.4318ZM84.1535 72.8153L80.1585 72.616L80.1585 72.6161L84.1535 72.8153ZM83.222 74.1125L80.3935 71.2841L83.222 74.1125ZM74.1144 83.2201L76.9428 86.0485V86.0485L74.1144 83.2201ZM72.8172 84.1517L72.618 80.1566L72.6179 80.1566L72.8172 84.1517ZM71.4337 83.3538L73.9667 80.258H73.9667L71.4337 83.3538ZM62.3542 75.9251L64.8871 72.8292L64.8871 72.8292L62.3542 75.9251ZM59.8954 74.5947L61.4262 78.2902L61.4262 78.2902L59.8954 74.5947ZM59.0976 77.274L63.0778 77.672V77.672L59.0976 77.274ZM57.9301 88.949L61.9102 89.347L57.9301 88.949ZM57.516 90.4915L60.2 93.4573L60.2001 93.4572L57.516 90.4915ZM41.484 90.4915L38.7999 93.4572L38.8 93.4573L41.484 90.4915ZM41.0699 88.949L37.0898 89.347L41.0699 88.949ZM39.9026 77.2756L43.8827 76.8776L39.9026 77.2756ZM39.1047 74.5963L37.574 78.2918L37.574 78.2918L39.1047 74.5963ZM36.646 75.9267L34.1131 72.8309H34.1131L36.646 75.9267ZM27.5662 83.3557L25.0332 80.2598L25.0332 80.2598L27.5662 83.3557ZM26.1827 84.1535L26.382 80.1585L26.3819 80.1585L26.1827 84.1535ZM24.8855 83.222L22.057 86.0504L24.8855 83.222ZM15.7779 74.1144L18.6063 71.286H18.6063L15.7779 74.1144ZM14.8463 72.8172L10.8513 73.0164L10.8513 73.0164L14.8463 72.8172ZM15.6442 71.4337L12.5484 68.9007L12.5484 68.9007L15.6442 71.4337ZM23.0731 62.354L19.9772 59.821L19.9772 59.821L23.0731 62.354ZM24.4035 59.8953L28.099 58.3645L28.099 58.3645L24.4035 59.8953ZM21.7242 59.0974L21.3261 63.0776H21.3261L21.7242 59.0974ZM10.051 57.9301L9.65297 61.9102H9.65298L10.051 57.9301ZM10.051 41.0699L9.65298 37.0897H9.65297L10.051 41.0699ZM21.7257 39.9024L22.1237 43.8826H22.1237L21.7257 39.9024ZM24.405 39.1046L28.1005 40.6353L28.1005 40.6353L24.405 39.1046ZM23.0746 36.6459L19.9788 39.1788L23.0746 36.6459ZM15.6444 27.5645L12.4444 29.9645L12.4951 30.032L12.5486 30.0974L15.6444 27.5645ZM15.6444 27.5645L18.8444 25.1645L18.7937 25.0969L18.7402 25.0315L15.6444 27.5645ZM14.8465 26.181L10.8515 25.9817L10.8515 25.9817L14.8465 26.181ZM15.7781 24.8838L12.9497 22.0554H12.9497L15.7781 24.8838ZM24.8857 15.7762L27.7141 18.6046V18.6046L24.8857 15.7762ZM26.1829 14.8446L25.9836 10.8496L25.9836 10.8496L26.1829 14.8446ZM27.5663 15.6425L25.0334 18.7383V18.7383L27.5663 15.6425ZM36.6462 23.0715L34.1132 26.1673L34.1786 26.2208L34.2462 26.2715L36.6462 23.0715ZM36.6462 23.0715L39.1792 19.9757L39.1138 19.9222L39.0462 19.8715L36.6462 23.0715ZM39.1049 24.4019L40.6356 28.0974L39.1049 24.4019ZM39.9027 21.7226L43.8829 22.1206V22.1206L39.9027 21.7226ZM41.0699 10.051L37.0898 9.65297V9.65298L41.0699 10.051ZM61.9102 9.65297C61.8781 9.33142 61.8235 8.70783 61.6947 8.15224C61.5401 7.48542 61.1813 6.43077 60.2 5.54274L54.832 11.4744C54.5124 11.1851 54.2792 10.8582 54.121 10.5461C53.9762 10.2602 53.9191 10.0353 53.9015 9.95926C53.8847 9.88672 53.8868 9.87261 53.9002 9.98013C53.9134 10.0864 53.9271 10.2208 53.95 10.449L61.9102 9.65297ZM63.0776 21.3262L61.9102 9.65298L53.95 10.449L55.1173 22.1222L63.0776 21.3262ZM61.426 20.708C61.739 20.8376 62.0393 21.0192 62.3091 21.25C62.575 21.4774 62.7691 21.7165 62.9066 21.9265C63.0407 22.1312 63.1198 22.3063 63.1634 22.4168C63.2068 22.5267 63.2257 22.5998 63.2294 22.6147C63.2328 22.628 63.2137 22.5511 63.1815 22.2969C63.1503 22.0503 63.12 21.7505 63.0776 21.3262L55.1173 22.1222C55.1854 22.8038 55.2717 23.7737 55.4712 24.5664C55.672 25.3648 56.2869 27.2384 58.3645 28.099L61.426 20.708ZM59.821 19.9773C59.491 20.2473 59.2576 20.4379 59.0611 20.5902C58.8586 20.7472 58.7907 20.7881 58.8026 20.781C58.8157 20.7731 58.8807 20.7348 58.9892 20.6877C59.0981 20.6405 59.2778 20.5726 59.5174 20.5226C59.7631 20.4714 60.0694 20.4396 60.4183 20.4668C60.7722 20.4944 61.113 20.5783 61.426 20.708L58.3645 28.099C60.4421 28.9596 62.2018 28.0695 62.9083 27.647C63.6099 27.2275 64.3568 26.6027 64.8869 26.1689L59.821 19.9773ZM68.9006 12.5486L59.821 19.9773L64.8869 26.1689L73.9665 18.7402L68.9006 12.5486ZM73.0162 10.8515C71.6945 10.7855 70.695 11.2776 70.1141 11.6398C69.6302 11.9415 69.1507 12.3439 68.9006 12.5485L73.9665 18.7402C74.144 18.595 74.2487 18.5096 74.3332 18.4438C74.4187 18.3773 74.4102 18.3888 74.3471 18.4282C74.2809 18.4695 74.0815 18.5881 73.7768 18.6879C73.4443 18.7968 73.0482 18.863 72.6177 18.8415L73.0162 10.8515ZM76.9426 12.9497C76.7141 12.7211 76.277 12.2731 75.8255 11.9246C75.2836 11.5064 74.338 10.9174 73.0162 10.8515L72.6177 18.8415C72.1872 18.8201 71.7997 18.7147 71.4797 18.5733C71.1865 18.4437 70.9999 18.3058 70.9381 18.2582C70.8792 18.2127 70.8719 18.2004 70.9504 18.2751C71.0279 18.3489 71.1236 18.4443 71.2858 18.6065L76.9426 12.9497ZM86.0502 22.0572L76.9426 12.9497L71.2858 18.6065L80.3933 27.7141L86.0502 22.0572ZM88.1484 25.9837C88.0825 24.6619 87.4934 23.7163 87.0752 23.1744C86.7268 22.7228 86.2787 22.2857 86.0502 22.0572L80.3933 27.7141C80.5555 27.8763 80.6509 27.972 80.7247 28.0495C80.7995 28.128 80.7872 28.1207 80.7417 28.0617C80.694 28 80.5561 27.8134 80.4265 27.5202C80.2851 27.2001 80.1798 26.8126 80.1583 26.3821L88.1484 25.9837ZM86.4513 30.0993C86.6559 29.8492 87.0583 29.3697 87.3601 28.8857C87.7223 28.3048 88.2143 27.3054 88.1484 25.9836L80.1583 26.3821C80.1368 25.9516 80.2031 25.5556 80.312 25.223C80.4117 24.9184 80.5304 24.719 80.5717 24.6528C80.6111 24.5896 80.6226 24.5812 80.556 24.6667C80.4903 24.7511 80.4049 24.8559 80.2596 25.0334L86.4513 30.0993ZM79.0225 39.179L86.4513 30.0993L80.2597 25.0334L72.8308 34.1131L79.0225 39.179ZM78.2918 37.5739C78.4214 37.8869 78.5054 38.2278 78.533 38.5816C78.5602 38.9305 78.5284 39.2369 78.4771 39.4826C78.4272 39.7221 78.3593 39.9019 78.312 40.0108C78.265 40.1193 78.2267 40.1842 78.2188 40.1974C78.2117 40.2093 78.2526 40.1414 78.4096 39.9389C78.5619 39.7424 78.7525 39.509 79.0225 39.179L72.8308 34.1131C72.3971 34.6432 71.7722 35.3901 71.3527 36.0916C70.9302 36.7982 70.0402 38.5579 70.9008 40.6355L78.2918 37.5739ZM77.6736 35.9224C77.2493 35.88 76.9495 35.8497 76.7028 35.8185C76.4486 35.7862 76.3717 35.7672 76.3851 35.7706C76.4 35.7743 76.473 35.7931 76.583 35.8366C76.6934 35.8802 76.8685 35.9593 77.0732 36.0933C77.2832 36.2309 77.5223 36.425 77.7498 36.6909C77.9805 36.9606 78.1622 37.261 78.2918 37.574L70.9008 40.6354C71.7613 42.713 73.635 43.328 74.4333 43.5288C75.226 43.7282 76.196 43.8145 76.8775 43.8827L77.6736 35.9224ZM89.347 37.0898L77.6736 35.9224L76.8775 43.8827L88.551 45.05L89.347 37.0898ZM93.4572 38.7999C92.5692 37.8187 91.5146 37.4599 90.8478 37.3053C90.2922 37.1765 89.6686 37.1219 89.347 37.0898L88.551 45.05C88.7792 45.0729 88.9137 45.0866 89.0199 45.0998C89.1274 45.1132 89.1133 45.1153 89.0407 45.0985C88.9647 45.0809 88.7398 45.0238 88.4539 44.879C88.1418 44.7208 87.8149 44.4876 87.5257 44.168L93.4572 38.7999ZM94.75 43.06C94.75 42.7368 94.7578 42.1109 94.6849 41.5452C94.5974 40.8664 94.3453 39.7812 93.4573 38.8L87.5256 44.168C87.2364 43.8484 87.0369 43.4999 86.9106 43.1736C86.7949 42.8747 86.7605 42.6452 86.7505 42.5678C86.741 42.494 86.7445 42.4802 86.7471 42.5885C86.7498 42.6955 86.75 42.8306 86.75 43.06H94.75ZM94.75 55.94V43.06H86.75V55.94H94.75ZM93.4573 60.2C94.3453 59.2188 94.5974 58.1336 94.6849 57.4548C94.7578 56.8891 94.75 56.2632 94.75 55.94H86.75C86.75 56.1694 86.7498 56.3045 86.7471 56.4115C86.7445 56.5198 86.741 56.506 86.7505 56.4322C86.7605 56.3548 86.7949 56.1253 86.9106 55.8264C87.0369 55.5001 87.2364 55.1516 87.5256 54.832L93.4573 60.2ZM89.347 61.9102C89.6686 61.8781 90.2922 61.8235 90.8478 61.6947C91.5146 61.5401 92.5692 61.1813 93.4572 60.2001L87.5257 54.832C87.8149 54.5124 88.1418 54.2792 88.4539 54.121C88.7398 53.9762 88.9647 53.9191 89.0407 53.9015C89.1133 53.8847 89.1274 53.8868 89.0199 53.9002C88.9137 53.9134 88.7792 53.9271 88.551 53.95L89.347 61.9102ZM77.6751 63.0774L89.347 61.9102L88.551 53.95L76.8791 55.1171L77.6751 63.0774ZM78.2934 61.4258C78.1637 61.7388 77.9821 62.0392 77.7514 62.3089C77.5239 62.5749 77.2848 62.769 77.0748 62.9065C76.8701 63.0406 76.695 63.1197 76.5846 63.1633C76.4746 63.2067 76.4016 63.2255 76.3867 63.2293C76.3733 63.2327 76.4502 63.2136 76.7044 63.1814C76.951 63.1501 77.2509 63.1199 77.6751 63.0774L76.8791 55.1171C76.1976 55.1853 75.2276 55.2716 74.4349 55.471C73.6365 55.6719 71.7629 56.2868 70.9023 58.3644L78.2934 61.4258ZM79.024 59.8209C78.754 59.4909 78.5634 59.2575 78.4111 59.061C78.2542 58.8584 78.2133 58.7906 78.2203 58.8024C78.2282 58.8156 78.2665 58.8806 78.3136 58.989C78.3608 59.0979 78.4287 59.2777 78.4787 59.5173C78.5299 59.763 78.5617 60.0693 78.5345 60.4182C78.5069 60.7721 78.423 61.1129 78.2933 61.4259L70.9023 58.3644C70.0417 60.442 70.9318 62.2017 71.3543 62.9082C71.7738 63.6097 72.3987 64.3567 72.8324 64.8868L79.024 59.8209ZM86.4515 68.8989L79.024 59.8209L72.8324 64.8868L80.2598 73.9648L86.4515 68.8989ZM88.1486 73.0146C88.2145 71.6928 87.7225 70.6933 87.3603 70.1125C87.0585 69.6285 86.6561 69.149 86.4515 68.8989L80.2598 73.9648C80.4051 74.1423 80.4905 74.247 80.5562 74.3315C80.6227 74.417 80.6113 74.4085 80.5719 74.3454C80.5306 74.2792 80.4119 74.0798 80.3122 73.7751C80.2033 73.4426 80.137 73.0465 80.1585 72.616L88.1486 73.0146ZM86.0504 76.9409C86.2789 76.7124 86.727 76.2753 87.0754 75.8238C87.4936 75.2819 88.0827 74.3363 88.1486 73.0145L80.1585 72.6161C80.18 72.1856 80.2853 71.7981 80.4267 71.478C80.5563 71.1848 80.6942 70.9982 80.7419 70.9364C80.7874 70.8775 80.7996 70.8702 80.7249 70.9487C80.6511 71.0262 80.5557 71.1219 80.3935 71.2841L86.0504 76.9409ZM76.9428 86.0485L86.0504 76.9409L80.3935 71.2841L71.286 80.3917L76.9428 86.0485ZM73.0164 88.1467C74.3382 88.0808 75.2838 87.4917 75.8257 87.0735C76.2772 86.7251 76.7143 86.277 76.9428 86.0485L71.286 80.3917C71.1238 80.5538 71.0281 80.6492 70.9505 80.7231C70.8721 80.7978 70.8794 80.7855 70.9383 80.74C71.0001 80.6924 71.1867 80.5544 71.4799 80.4249C71.7999 80.2834 72.1875 80.1781 72.618 80.1566L73.0164 88.1467ZM68.9007 86.4496C69.1509 86.6543 69.6304 87.0566 70.1143 87.3584C70.6952 87.7206 71.6947 88.2126 73.0164 88.1467L72.6179 80.1566C73.0484 80.1352 73.4445 80.2014 73.777 80.3103C74.0816 80.41 74.281 80.5287 74.3472 80.57C74.4104 80.6094 74.4189 80.6209 74.3334 80.5543C74.2489 80.4886 74.1442 80.4032 73.9667 80.258L68.9007 86.4496ZM59.8212 79.0209L68.9008 86.4496L73.9667 80.258L64.8871 72.8292L59.8212 79.0209ZM61.4262 78.2902C61.1132 78.4198 60.7724 78.5038 60.4185 78.5314C60.0696 78.5586 59.7633 78.5268 59.5176 78.4755C59.278 78.4256 59.0983 78.3577 58.9893 78.3104C58.8809 78.2634 58.8159 78.2251 58.8027 78.2172C58.7909 78.2101 58.8587 78.251 59.0613 78.408C59.2578 78.5603 59.4912 78.7509 59.8212 79.0209L64.8871 72.8292C64.357 72.3955 63.6101 71.7707 62.9085 71.3511C62.202 70.9286 60.4423 70.0386 58.3647 70.8992L61.4262 78.2902ZM63.0778 77.672C63.1202 77.2477 63.1505 76.9479 63.1817 76.7012C63.2139 76.447 63.233 76.3701 63.2296 76.3835C63.2259 76.3984 63.207 76.4714 63.1636 76.5814C63.12 76.6918 63.0409 76.8669 62.9068 77.0717C62.7693 77.2816 62.5752 77.5207 62.3092 77.7482C62.0395 77.9789 61.7391 78.1606 61.4262 78.2902L58.3647 70.8992C56.2871 71.7597 55.6722 73.6334 55.4713 74.4317C55.2719 75.2244 55.1856 76.1944 55.1175 76.876L63.0778 77.672ZM61.9102 89.347L63.0778 77.672L55.1175 76.876L53.95 88.551L61.9102 89.347ZM60.2001 93.4572C61.1813 92.5692 61.5401 91.5146 61.6947 90.8478C61.8235 90.2922 61.8781 89.6686 61.9102 89.347L53.95 88.551C53.9271 88.7792 53.9134 88.9137 53.9002 89.0199C53.8868 89.1274 53.8847 89.1133 53.9015 89.0407C53.9191 88.9647 53.9762 88.7398 54.121 88.4539C54.2792 88.1418 54.5124 87.8149 54.832 87.5257L60.2001 93.4572ZM55.94 94.75C56.2632 94.75 56.8891 94.7578 57.4548 94.6849C58.1336 94.5974 59.2188 94.3453 60.2 93.4573L54.832 87.5256C55.1516 87.2364 55.5001 87.0369 55.8264 86.9106C56.1253 86.7949 56.3548 86.7605 56.4322 86.7505C56.506 86.741 56.5198 86.7445 56.4115 86.7471C56.3045 86.7498 56.1694 86.75 55.94 86.75V94.75ZM43.06 94.75H55.94V86.75H43.06V94.75ZM38.8 93.4573C39.7812 94.3453 40.8664 94.5974 41.5452 94.6849C42.1109 94.7578 42.7368 94.75 43.06 94.75V86.75C42.8306 86.75 42.6955 86.7498 42.5885 86.7471C42.4802 86.7445 42.494 86.741 42.5678 86.7505C42.6452 86.7605 42.8747 86.7949 43.1736 86.9106C43.4999 87.0369 43.8484 87.2364 44.168 87.5256L38.8 93.4573ZM37.0898 89.347C37.1219 89.6686 37.1765 90.2922 37.3053 90.8478C37.4599 91.5146 37.8187 92.5692 38.7999 93.4572L44.168 87.5257C44.4876 87.8149 44.7208 88.1418 44.879 88.4539C45.0238 88.7398 45.0809 88.9647 45.0985 89.0407C45.1153 89.1133 45.1132 89.1274 45.0998 89.0199C45.0866 88.9137 45.0729 88.7792 45.05 88.551L37.0898 89.347ZM35.9224 77.6736L37.0898 89.347L45.05 88.551L43.8827 76.8776L35.9224 77.6736ZM37.574 78.2918C37.261 78.1622 36.9606 77.9806 36.6909 77.7499C36.425 77.5224 36.2309 77.2833 36.0933 77.0733C35.9593 76.8686 35.8802 76.6935 35.8366 76.583C35.7931 76.4731 35.7743 76.4 35.7706 76.3851C35.7672 76.3718 35.7862 76.4486 35.8185 76.7029C35.8497 76.9495 35.88 77.2493 35.9224 77.6736L43.8827 76.8776C43.8146 76.196 43.7282 75.2261 43.5288 74.4333C43.328 73.635 42.713 71.7613 40.6354 70.9008L37.574 78.2918ZM39.179 79.0225C39.509 78.7525 39.7424 78.5619 39.9389 78.4096C40.1414 78.2526 40.2093 78.2117 40.1974 78.2188C40.1842 78.2267 40.1193 78.265 40.0108 78.3121C39.9019 78.3593 39.7221 78.4272 39.4826 78.4771C39.2369 78.5284 38.9305 78.5602 38.5816 78.533C38.2278 78.5054 37.8869 78.4215 37.574 78.2918L40.6355 70.9008C38.5579 70.0402 36.7982 70.9303 36.0916 71.3528C35.3901 71.7723 34.6432 72.3971 34.1131 72.8309L39.179 79.0225ZM30.0991 86.4515L39.179 79.0225L34.1131 72.8309L25.0332 80.2598L30.0991 86.4515ZM25.9834 88.1486C27.3052 88.2145 28.3047 87.7225 28.8855 87.3603C29.3695 87.0585 29.849 86.6561 30.0991 86.4515L25.0332 80.2598C24.8557 80.4051 24.7509 80.4905 24.6665 80.5562C24.581 80.6227 24.5894 80.6113 24.6526 80.5719C24.7188 80.5306 24.9182 80.4119 25.2228 80.3122C25.5554 80.2033 25.9515 80.137 26.382 80.1585L25.9834 88.1486ZM22.057 86.0504C22.2855 86.2789 22.7226 86.727 23.1742 87.0754C23.7161 87.4936 24.6617 88.0827 25.9835 88.1486L26.3819 80.1585C26.8124 80.18 27.1999 80.2853 27.52 80.4267C27.8132 80.5563 27.9998 80.6942 28.0615 80.7419C28.1205 80.7874 28.1278 80.7997 28.0493 80.7249C27.9718 80.6511 27.8761 80.5557 27.7139 80.3935L22.057 86.0504ZM12.9495 76.9428L22.057 86.0504L27.7139 80.3935L18.6063 71.286L12.9495 76.9428ZM10.8513 73.0164C10.9172 74.3382 11.5063 75.2837 11.9244 75.8257C12.2729 76.2772 12.721 76.7143 12.9495 76.9428L18.6063 71.286C18.4441 71.1238 18.3488 71.0281 18.2749 70.9505C18.2002 70.8721 18.2125 70.8794 18.258 70.9383C18.3056 71.0001 18.4436 71.1867 18.5731 71.4799C18.7145 71.7999 18.8199 72.1874 18.8414 72.6179L10.8513 73.0164ZM12.5484 68.9007C12.3437 69.1509 11.9414 69.6304 11.6396 70.1143C11.2774 70.6952 10.7854 71.6946 10.8513 73.0164L18.8414 72.6179C18.8628 73.0484 18.7966 73.4445 18.6877 73.777C18.5879 74.0816 18.4693 74.281 18.428 74.3472C18.3886 74.4104 18.3771 74.4189 18.4437 74.3334C18.5094 74.2489 18.5948 74.1442 18.74 73.9666L12.5484 68.9007ZM19.9772 59.821L12.5484 68.9007L18.74 73.9667L26.1689 64.8869L19.9772 59.821ZM20.7079 61.426C20.5783 61.113 20.4943 60.7722 20.4668 60.4183C20.4396 60.0694 20.4714 59.7631 20.5226 59.5174C20.5726 59.2778 20.6404 59.0981 20.6877 58.9891C20.7347 58.8807 20.7731 58.8157 20.7809 58.8025C20.788 58.7907 20.7471 58.8585 20.5901 59.0611C20.4379 59.2576 20.2472 59.491 19.9772 59.821L26.1689 64.8869C26.6026 64.3568 27.2275 63.6099 27.647 62.9083C28.0695 62.2018 28.9595 60.4421 28.099 58.3645L20.7079 61.426ZM21.3261 63.0776C21.7504 63.12 22.0503 63.1503 22.2969 63.1815C22.5511 63.2137 22.628 63.2328 22.6146 63.2294C22.5997 63.2257 22.5267 63.2068 22.4167 63.1634C22.3063 63.1198 22.1312 63.0407 21.9265 62.9066C21.7165 62.7691 21.4774 62.575 21.2499 62.309C21.0192 62.0393 20.8376 61.739 20.7079 61.426L28.099 58.3645C27.2384 56.2869 25.3648 55.672 24.5664 55.4712C23.7737 55.2717 22.8037 55.1854 22.1222 55.1173L21.3261 63.0776ZM9.65298 61.9102L21.3261 63.0776L22.1222 55.1173L10.449 53.9499L9.65298 61.9102ZM5.54274 60.2C6.43076 61.1813 7.48542 61.5401 8.15224 61.6947C8.70783 61.8235 9.33142 61.8781 9.65297 61.9102L10.449 53.9499C10.2208 53.9271 10.0864 53.9134 9.98013 53.9002C9.87261 53.8868 9.88672 53.8846 9.95926 53.9015C10.0353 53.9191 10.2602 53.9762 10.5461 54.121C10.8582 54.2792 11.1851 54.5124 11.4744 54.832L5.54274 60.2ZM4.25 55.94C4.25 56.2632 4.24223 56.8891 4.31513 57.4548C4.40263 58.1337 4.65471 59.2188 5.54274 60.2L11.4744 54.832C11.7636 55.1516 11.9631 55.5001 12.0894 55.8264C12.2051 56.1253 12.2395 56.3548 12.2495 56.4322C12.259 56.506 12.2555 56.5198 12.2529 56.4115C12.2502 56.3045 12.25 56.1694 12.25 55.94H4.25ZM4.25 43.06V55.94H12.25V43.06H4.25ZM5.54274 38.7999C4.65471 39.7812 4.40263 40.8663 4.31513 41.5452C4.24223 42.1109 4.25 42.7368 4.25 43.06H12.25C12.25 42.8306 12.2502 42.6955 12.2529 42.5885C12.2555 42.4801 12.259 42.494 12.2495 42.5678C12.2395 42.6452 12.2051 42.8747 12.0894 43.1736C11.9631 43.4999 11.7636 43.8484 11.4744 44.168L5.54274 38.7999ZM9.65297 37.0897C9.33142 37.1219 8.70783 37.1765 8.15224 37.3053C7.48542 37.4599 6.43077 37.8187 5.54274 38.7999L11.4744 44.168C11.1851 44.4876 10.8582 44.7208 10.5461 44.879C10.2602 45.0238 10.0353 45.0809 9.95926 45.0985C9.88672 45.1153 9.87261 45.1132 9.98013 45.0998C10.0864 45.0866 10.2208 45.0729 10.449 45.05L9.65297 37.0897ZM21.3277 35.9223L9.65298 37.0897L10.449 45.05L22.1237 43.8826L21.3277 35.9223ZM20.7095 37.5738C20.8391 37.2609 21.0208 36.9605 21.2515 36.6908C21.479 36.4248 21.7181 36.2307 21.928 36.0932C22.1328 35.9591 22.3079 35.88 22.4183 35.8364C22.5283 35.793 22.6013 35.7742 22.6162 35.7704C22.6296 35.7671 22.5527 35.7861 22.2984 35.8183C22.0518 35.8496 21.752 35.8798 21.3277 35.9223L22.1237 43.8826C22.8053 43.8144 23.7753 43.7281 24.568 43.5287C25.3663 43.3278 27.24 42.7129 28.1005 40.6353L20.7095 37.5738ZM19.9788 39.1788C20.2488 39.5088 20.4394 39.7423 20.5917 39.9388C20.7487 40.1413 20.7896 40.2091 20.7825 40.1973C20.7746 40.1841 20.7363 40.1192 20.6892 40.0107C20.642 39.9018 20.5741 39.722 20.5242 39.4825C20.4729 39.2368 20.4411 38.9304 20.4683 38.5815C20.4959 38.2277 20.5798 37.8868 20.7095 37.5738L28.1005 40.6353C28.9611 38.5577 28.071 36.798 27.6485 36.0915C27.229 35.39 26.6042 34.643 26.1705 34.1129L19.9788 39.1788ZM12.5486 30.0974L19.9788 39.1788L26.1705 34.1129L18.7402 25.0315L12.5486 30.0974ZM12.4444 29.9645L12.4444 29.9645L18.8444 25.1645L18.8444 25.1645L12.4444 29.9645ZM10.8515 25.9817C10.7856 27.3035 11.2776 28.303 11.6398 28.8838C11.9415 29.3678 12.3439 29.8473 12.5485 30.0974L18.7402 25.0315C18.595 24.854 18.5096 24.7493 18.4438 24.6648C18.3773 24.5793 18.3888 24.5877 18.4282 24.6509C18.4695 24.7171 18.5881 24.9165 18.6879 25.2212C18.7968 25.5537 18.863 25.9498 18.8415 26.3803L10.8515 25.9817ZM12.9497 22.0554C12.7211 22.2839 12.2731 22.721 11.9246 23.1725C11.5064 23.7144 10.9174 24.66 10.8515 25.9817L18.8415 26.3803C18.8201 26.8108 18.7147 27.1983 18.5733 27.5183C18.4437 27.8115 18.3058 27.9981 18.2582 28.0599C18.2127 28.1188 18.2004 28.1261 18.2751 28.0476C18.3489 27.9701 18.4443 27.8744 18.6065 27.7122L12.9497 22.0554ZM22.0572 12.9478L12.9497 22.0554L18.6065 27.7122L27.7141 18.6046L22.0572 12.9478ZM25.9836 10.8496C24.6618 10.9155 23.7163 11.5046 23.1744 11.9228C22.7228 12.2712 22.2857 12.7193 22.0572 12.9478L27.7141 18.6046C27.8763 18.4425 27.972 18.3471 28.0495 18.2732C28.128 18.1985 28.1207 18.2108 28.0617 18.2563C28 18.304 27.8134 18.4419 27.5202 18.5714C27.2001 18.7129 26.8126 18.8182 26.3821 18.8397L25.9836 10.8496ZM30.0993 12.5467C29.8492 12.342 29.3697 11.9397 28.8857 11.6379C28.3049 11.2757 27.3054 10.7837 25.9836 10.8496L26.3821 18.8397C25.9516 18.8611 25.5556 18.7949 25.223 18.686C24.9184 18.5863 24.719 18.4676 24.6528 18.4263C24.5896 18.3869 24.5812 18.3754 24.6667 18.442C24.7511 18.5077 24.8559 18.5931 25.0334 18.7383L30.0993 12.5467ZM39.1791 19.9756L30.0993 12.5467L25.0334 18.7383L34.1132 26.1673L39.1791 19.9756ZM39.0462 19.8715L39.0462 19.8715L34.2462 26.2715L34.2462 26.2715L39.0462 19.8715ZM37.5742 20.7063C37.8871 20.5767 38.228 20.4927 38.5818 20.4652C38.9307 20.438 39.2371 20.4698 39.4828 20.521C39.7223 20.571 39.9021 20.6388 40.011 20.6861C40.1195 20.7332 40.1844 20.7715 40.1976 20.7794C40.2095 20.7864 40.1416 20.7455 39.9391 20.5886C39.7426 20.4363 39.5092 20.2457 39.1792 19.9757L34.1133 26.1673C34.6434 26.601 35.3903 27.2259 36.0918 27.6454C36.7984 28.0679 38.558 28.9579 40.6356 28.0974L37.5742 20.7063ZM35.9226 21.3246C35.8802 21.7488 35.8499 22.0487 35.8186 22.2953C35.7864 22.5495 35.7674 22.6264 35.7707 22.613C35.7745 22.5981 35.7933 22.5251 35.8367 22.4151C35.8803 22.3047 35.9595 22.1296 36.0935 21.9249C36.231 21.7149 36.4252 21.4758 36.6911 21.2483C36.9608 21.0176 37.2612 20.836 37.5742 20.7063L40.6356 28.0974C42.7132 27.2368 43.3281 25.3632 43.529 24.5648C43.7284 23.7721 43.8147 22.8021 43.8829 22.1206L35.9226 21.3246ZM37.0898 9.65298L35.9226 21.3246L43.8829 22.1206L45.05 10.449L37.0898 9.65298ZM38.8 5.54274C37.8187 6.43077 37.4599 7.48542 37.3053 8.15224C37.1765 8.70783 37.1219 9.33142 37.0898 9.65297L45.05 10.449C45.0729 10.2208 45.0866 10.0864 45.0998 9.98013C45.1132 9.87261 45.1153 9.88672 45.0985 9.95926C45.0809 10.0353 45.0238 10.2602 44.879 10.5461C44.7208 10.8582 44.4876 11.1851 44.168 11.4744L38.8 5.54274ZM43.06 4.25C42.7368 4.25 42.1109 4.24223 41.5452 4.31513C40.8663 4.40263 39.7812 4.65471 38.8 5.54274L44.168 11.4744C43.8484 11.7636 43.4999 11.9631 43.1736 12.0894C42.8747 12.2051 42.6452 12.2395 42.5678 12.2495C42.494 12.259 42.4802 12.2555 42.5885 12.2529C42.6955 12.2502 42.8306 12.25 43.06 12.25V4.25ZM55.94 4.25H43.06V12.25H55.94V4.25ZM60.2 5.54274C59.2188 4.65471 58.1337 4.40263 57.4548 4.31513C56.8891 4.24223 56.2632 4.25 55.94 4.25V12.25C56.1694 12.25 56.3045 12.2502 56.4115 12.2529C56.5198 12.2555 56.506 12.259 56.4322 12.2495C56.3548 12.2395 56.1253 12.2051 55.8264 12.0894C55.5001 11.9631 55.1516 11.7636 54.832 11.4744L60.2 5.54274ZM62 49.5C62 56.4036 56.4036 62 49.5 62V70C60.8218 70 70 60.8218 70 49.5H62ZM49.5 37C56.4036 37 62 42.5964 62 49.5H70C70 38.1782 60.8218 29 49.5 29V37ZM37 49.5C37 42.5964 42.5964 37 49.5 37V29C38.1782 29 29 38.1782 29 49.5H37ZM49.5 62C42.5964 62 37 56.4036 37 49.5H29C29 60.8218 38.1782 70 49.5 70V62Z" fill="#9C9C9C"/>
</svg>
