<svg width="100" height="100" viewBox="0 0 100 100" fill="none" xmlns="http://www.w3.org/2000/svg">
<mask id="path-1-outside-1_15_374" maskUnits="userSpaceOnUse" x="4" y="9" width="87" height="87" fill="black">
<rect fill="white" x="4" y="9" width="87" height="87"/>
<path d="M65.2012 18.4142L17.8533 65.7621L17.8532 65.7622C17.6586 65.9568 17.5613 66.0541 17.4943 66.1724C17.4273 66.2907 17.3939 66.4242 17.3272 66.6913L12.2021 87.1915C12.1119 87.5526 12.0667 87.7331 12.1668 87.8332C12.2669 87.9333 12.4474 87.8881 12.8085 87.7979L33.3087 82.6728L33.3088 82.6728C33.5758 82.606 33.7093 82.5727 33.8276 82.5057C33.9459 82.4387 34.0432 82.3414 34.2378 82.1468L34.2379 82.1467L81.5858 34.7988C82.2524 34.1322 82.5858 33.7988 82.5858 33.3846C82.5858 32.9704 82.2524 32.6371 81.5858 31.9704L68.0296 18.4142C67.3629 17.7475 67.0296 17.4142 66.6154 17.4142C66.2012 17.4142 65.8678 17.7475 65.2012 18.4142Z"/>
</mask>
<path d="M17.8533 65.7621L12.1964 60.1053L11.9046 60.3971L11.6443 60.7174L17.8533 65.7621ZM65.2012 18.4142L70.858 24.0711L70.858 24.0711L65.2012 18.4142ZM68.0296 18.4142L73.6865 12.7574L73.6864 12.7574L68.0296 18.4142ZM81.5858 31.9704L87.2427 26.3136L87.2426 26.3135L81.5858 31.9704ZM81.5858 34.7988L87.2426 40.4557L87.2426 40.4557L81.5858 34.7988ZM17.3272 66.6913L25.0883 68.6316L17.3272 66.6913ZM12.2021 87.1915L19.9633 89.1318L19.9633 89.1318L12.2021 87.1915ZM12.8085 87.7979L10.8682 80.0367L10.8681 80.0368L12.8085 87.7979ZM33.3087 82.6728L31.3684 74.9117L33.3087 82.6728ZM34.2378 82.1468L39.8946 87.8037L39.8947 87.8036L34.2378 82.1468ZM33.8276 82.5057L29.8862 75.544L29.8858 75.5442L33.8276 82.5057ZM33.3088 82.6728L35.2491 90.4339L35.2493 90.4339L33.3088 82.6728ZM66.6154 17.4142V9.41421V17.4142ZM17.8532 65.7622L23.5101 71.419L23.8019 71.1272L24.0621 70.8069L17.8532 65.7622ZM17.4943 66.1724L24.4559 70.114L24.4559 70.114L17.4943 66.1724ZM23.5101 71.419L70.858 24.0711L59.5443 12.7574L12.1964 60.1053L23.5101 71.419ZM62.3727 24.0711L75.9289 37.6273L87.2426 26.3135L73.6865 12.7574L62.3727 24.0711ZM75.9289 29.142L28.581 76.4899L39.8947 87.8036L87.2426 40.4557L75.9289 29.142ZM9.56604 64.751L4.44097 85.2513L19.9633 89.1318L25.0883 68.6316L9.56604 64.751ZM14.7487 95.559L35.249 90.434L31.3684 74.9117L10.8682 80.0367L14.7487 95.559ZM4.44098 85.2513C4.42623 85.3102 4.37753 85.5026 4.33421 85.6979C4.29377 85.8803 4.20261 86.3046 4.15109 86.8313C4.05971 87.7655 3.91004 90.8901 6.50994 93.49L17.8237 82.1764C20.3235 84.6762 20.1464 87.6605 20.0751 88.3891C20.0336 88.813 19.9644 89.1183 19.9547 89.1621C19.9421 89.219 19.9329 89.2534 19.9633 89.1318L4.44098 85.2513ZM10.8681 80.0368C10.7466 80.0671 10.7809 80.0579 10.8378 80.0453C10.8816 80.0356 11.1869 79.9664 11.6109 79.9249C12.3396 79.8536 15.3239 79.6765 17.8237 82.1764L6.50994 93.49C9.10984 96.0899 12.2345 95.9403 13.1687 95.8489C13.6954 95.7974 14.1198 95.7062 14.3021 95.6658C14.4975 95.6224 14.6898 95.5737 14.7488 95.559L10.8681 80.0368ZM28.581 76.4899L28.581 76.4899L39.8947 87.8036L39.8947 87.8036L28.581 76.4899ZM28.581 76.4899C28.5552 76.5157 28.5393 76.5316 28.5256 76.5452C28.5124 76.5583 28.5091 76.5615 28.5115 76.5592C28.514 76.5568 28.5281 76.543 28.5504 76.5219C28.5728 76.5006 28.609 76.4668 28.656 76.4245C28.8544 76.2461 29.2758 75.8895 29.8862 75.544L37.769 89.4674C38.4976 89.0549 39.0269 88.6161 39.3521 88.3238C39.61 88.092 39.8544 87.8439 39.8946 87.8037L28.581 76.4899ZM35.249 90.434L35.2491 90.4339L31.3685 74.9117L31.3684 74.9117L35.249 90.434ZM35.2493 90.4339C35.3043 90.4201 35.6428 90.3381 35.9741 90.2363C36.3921 90.1079 37.0407 89.8798 37.7694 89.4672L29.8858 75.5442C30.4962 75.1986 31.0189 75.0207 31.2738 74.9423C31.3343 74.9237 31.382 74.9101 31.4117 74.9018C31.4412 74.8936 31.4603 74.8886 31.4636 74.8877C31.4669 74.8869 31.4624 74.8881 31.4444 74.8926C31.4257 74.8974 31.4038 74.9028 31.3683 74.9117L35.2493 90.4339ZM75.9289 37.6272C76.1166 37.8149 76.1844 37.8834 76.2255 37.9267C76.2694 37.9729 76.1477 37.8503 75.9756 37.6248C75.5993 37.1317 74.5858 35.63 74.5858 33.3846H90.5858C90.5858 30.725 89.4056 28.8496 88.696 27.9195C88.1272 27.1741 87.4161 26.487 87.2427 26.3136L75.9289 37.6272ZM87.2426 40.4557C87.4161 40.2823 88.1272 39.5951 88.696 38.8497C89.4056 37.9197 90.5858 36.0442 90.5858 33.3846H74.5858C74.5858 31.1392 75.5993 29.6376 75.9756 29.1444C76.1477 28.9189 76.2694 28.7963 76.2255 28.8425C76.1844 28.8858 76.1166 28.9543 75.9289 29.142L87.2426 40.4557ZM70.858 24.0711C71.0457 23.8834 71.1142 23.8156 71.1575 23.7745C71.2037 23.7306 71.0811 23.8524 70.8556 24.0244C70.3624 24.4007 68.8607 25.4142 66.6154 25.4142V9.41421C63.9558 9.41421 62.0803 10.5944 61.1503 11.304C60.4048 11.8728 59.7177 12.5839 59.5443 12.7574L70.858 24.0711ZM73.6864 12.7574C73.513 12.5839 72.8259 11.8728 72.0805 11.304C71.1504 10.5944 69.2749 9.41421 66.6154 9.41421V25.4142C64.37 25.4142 62.8684 24.4007 62.3752 24.0244C62.1497 23.8523 62.0271 23.7306 62.0733 23.7745C62.1166 23.8156 62.1851 23.8834 62.3727 24.0711L73.6864 12.7574ZM11.6443 60.7174L11.6443 60.7174L24.0621 70.8069L24.0622 70.8069L11.6443 60.7174ZM12.1964 60.1053C12.1562 60.1455 11.9081 60.39 11.6763 60.6478C11.3839 60.9731 10.9452 61.5023 10.5327 62.2308L24.4559 70.114C24.1104 70.7243 23.7538 71.1456 23.5755 71.344C23.5332 71.3911 23.4993 71.4273 23.4781 71.4497C23.457 71.472 23.4431 71.4861 23.4407 71.4885C23.4384 71.4909 23.4416 71.4876 23.4547 71.4745C23.4683 71.4608 23.4842 71.4449 23.5101 71.419L12.1964 60.1053ZM25.0883 68.6316C25.0972 68.5961 25.1027 68.5742 25.1074 68.5555C25.1119 68.5376 25.1131 68.5331 25.1123 68.5363C25.1114 68.5397 25.1064 68.5588 25.0981 68.5884C25.0899 68.6181 25.0763 68.6657 25.0577 68.7262C24.9793 68.9812 24.8014 69.5037 24.4559 70.114L10.5327 62.2308C10.1202 62.9594 9.89214 63.6078 9.76365 64.0259C9.66181 64.3573 9.57985 64.6958 9.56604 64.751L25.0883 68.6316Z" fill="#9C9C9C" mask="url(#path-1-outside-1_15_374)"/>
<path d="M53 25L69.5 14L86 30.5L75 47L53 25Z" fill="#9C9C9C"/>
</svg>
